<?xml version="1.0" encoding="UTF-8"?>
<svg width="87px" height="91px" viewBox="0 0 87 91" version="1.1" xmlns="http://www.w3.org/2000/svg" xmlns:xlink="http://www.w3.org/1999/xlink">
    <!-- Generator: Sketch 43.2 (39069) - http://www.bohemiancoding.com/sketch -->
    <title>Group</title>
    <desc>Created with Sketch.</desc>
    <defs></defs>
    <g id="Page-1" stroke="none" stroke-width="1" fill="none" fill-rule="evenodd">
        <g id="Group" fill="#FFFFFF">
            <path d="M37.984,15.561 L33.29,16.936 L32.497,10.5 C34.11,4.934 43.882,4.678 43.834,1.171 C44.135,0.647 44.412,0.652 44.668,1.187 C44.69,4.832 55.294,5.406 55.894,10.934 L54.017,16.79 L48.857,14.915 L37.984,15.561 Z M43.966,9.674 C44.149,9.275 44.31,9.236 44.579,9.678 C44.354,11.954 49.491,12.531 50.513,14.554 L38.058,14.519 C38.602,12.543 43.984,11.74 43.966,9.674 L43.966,9.674 Z" id="Fill-28"></path>
            <path d="M20.675,24.874 L17.685,28.745 L13.261,24.004 C11.294,18.553 19.049,12.602 16.95,9.793 C16.885,9.192 17.112,9.033 17.634,9.315 C19.794,12.252 28.71,6.483 32.445,10.602 L34.368,16.444 L29.091,17.959 L20.675,24.874 Z M22.054,16.594 C21.967,16.164 22.074,16.038 22.552,16.238 C23.707,18.211 28.203,15.658 30.219,16.694 L20.122,23.987 C19.4,22.068 23.283,18.255 22.054,16.594 L22.054,16.594 Z" id="Fill-29"></path>
            <path d="M12.542,42.868 L12.399,47.757 L6.033,46.523 C1.238,43.269 4.014,33.896 0.665,32.858 C0.259,32.409 0.349,32.147 0.937,32.069 C4.411,33.175 8.233,23.267 13.676,24.404 L18.665,28 L15.287,32.327 L12.542,42.868 Z M8.791,35.359 C8.469,35.062 8.481,34.897 8.985,34.778 C11.079,35.695 13.216,30.988 15.457,30.641 L11.574,42.476 C9.862,41.348 10.762,35.981 8.791,35.359 L8.791,35.359 Z" id="Fill-30"></path>
            <path d="M16.959,62.636 L19.717,66.676 L13.842,69.419 C8.049,69.605 4.786,60.391 1.466,61.52 C0.875,61.395 0.793,61.13 1.223,60.721 C4.684,59.574 1.952,49.312 7.023,47.033 L13.174,47.009 L12.984,52.495 L16.959,62.636 Z M9.512,58.766 C9.076,58.716 8.989,58.575 9.327,58.182 C11.56,57.694 10.521,52.629 12.13,51.031 L15.945,62.889 C13.898,62.982 11.471,58.111 9.512,58.766 L9.512,58.766 Z" id="Fill-31"></path>
            <path d="M31.201,74.326 L35.746,76.132 L32.409,81.692 C27.711,85.086 19.853,79.272 17.732,82.063 C17.172,82.291 16.956,82.117 17.084,81.538 C19.311,78.652 11.309,71.671 14.238,66.946 L19.324,63.487 L22.234,68.142 L31.201,74.326 Z M22.862,75.282 C22.473,75.484 22.322,75.416 22.382,74.901 C23.961,73.247 20.268,69.629 20.708,67.406 L30.501,75.102 C28.856,76.324 24.12,73.643 22.862,75.282 L22.862,75.282 Z" id="Fill-32"></path>
            <path d="M50.149,76.188 L54.888,74.979 L55.457,81.438 C53.651,86.945 43.876,86.86 43.801,90.366 C43.482,90.879 43.205,90.864 42.967,90.321 C43.073,86.677 32.496,85.733 32.088,80.188 L34.17,74.401 L39.26,76.456 L50.149,76.188 Z M43.965,81.864 C43.769,82.256 43.607,82.289 43.353,81.837 C43.658,79.572 38.544,78.815 37.592,76.758 L50.04,77.228 C49.427,79.183 44.02,79.798 43.965,81.864 L43.965,81.864 Z" id="Fill-33"></path>
            <path d="M67.195,66.906 L70.318,63.142 L74.574,68.034 C76.35,73.55 68.392,79.226 70.392,82.107 C70.436,82.71 70.203,82.861 69.692,82.561 C67.635,79.55 58.524,85.005 54.934,80.758 L53.217,74.852 L58.543,73.523 L67.195,66.906 Z M65.528,75.132 C65.599,75.566 65.488,75.687 65.018,75.471 C63.932,73.459 59.35,75.853 57.371,74.747 L67.717,67.811 C68.371,69.754 64.358,73.429 65.528,75.132 L65.528,75.132 Z" id="Fill-34"></path>
            <path d="M74.906,48.866 L75.219,43.985 L81.538,45.44 C86.217,48.859 83.116,58.13 86.427,59.284 C86.816,59.746 86.717,60.005 86.127,60.063 C82.694,58.836 78.528,68.605 73.129,67.279 L68.267,63.511 L71.794,59.304 L74.906,48.866 Z M78.392,56.501 C78.704,56.809 78.686,56.973 78.178,57.075 C76.117,56.085 73.817,60.715 71.566,60.984 L75.86,49.291 C77.531,50.478 76.445,55.811 78.392,56.501 L78.392,56.501 Z" id="Fill-35"></path>
            <path d="M70.723,30.11 L68.109,25.977 L74.076,23.441 C79.871,23.457 82.811,32.779 86.168,31.767 C86.755,31.912 86.827,32.18 86.384,32.574 C82.885,33.599 85.256,43.95 80.109,46.051 L73.961,45.86 L74.342,40.384 L70.723,30.11 Z M78.032,34.238 C78.466,34.304 78.547,34.448 78.196,34.828 C75.947,35.238 76.808,40.336 75.145,41.877 L71.746,29.894 C73.796,29.872 76.051,34.824 78.032,34.238 L78.032,34.238 Z" id="Fill-36"></path>
            <path d="M56.742,17.818 L52.197,16.011 L55.534,10.451 C60.232,7.058 68.09,12.872 70.211,10.08 C70.771,9.852 70.986,10.026 70.859,10.606 C68.632,13.492 76.634,20.472 73.705,25.198 L68.619,28.656 L65.708,24.002 L56.742,17.818 Z M65.08,16.861 C65.47,16.659 65.621,16.727 65.56,17.242 C63.982,18.896 67.675,22.514 67.235,24.738 L57.441,17.041 C59.087,15.819 63.822,18.5 65.08,16.861 L65.08,16.861 Z" id="Fill-37"></path>
            <path d="M27.388,38.201 L44.092,38.206 C46.069,43.979 44.992,45.742 40.873,43.498 C30.529,39.92 33.022,48.516 37.976,55.894 C42.861,63.168 47.247,66.23 47.883,66.215 C48.073,66.21 48.193,65.915 47.956,65.575 C41.708,56.629 40.474,48.329 46,48.994 C51.587,49.191 50.652,42.703 49.237,38.207 L62.096,38.21 L59.913,33.855 L24.106,34.253 L27.388,38.201 Z" id="Fill-38"></path>
            <path d="M43.906,23.973 C46.259,23.973 48.168,25.881 48.168,28.235 C48.168,30.588 46.259,32.496 43.906,32.496 C41.553,32.496 39.644,30.588 39.644,28.235 C39.644,25.881 41.553,23.973 43.906,23.973" id="Fill-39"></path>
        </g>
    </g>
</svg>