<?xml version="1.0" encoding="UTF-8"?>
<svg width="56px" height="59px" viewBox="0 0 56 59" version="1.1" xmlns="http://www.w3.org/2000/svg" xmlns:xlink="http://www.w3.org/1999/xlink">
    <!-- Generator: Sketch 43.2 (39069) - http://www.bohemiancoding.com/sketch -->
    <title>Group</title>
    <desc>Created with Sketch.</desc>
    <defs></defs>
    <g id="Symbols" stroke="none" stroke-width="1" fill="none" fill-rule="evenodd" opacity="0.1">
        <g id="yogaflex-logo" transform="translate(-12.000000, -11.000000)" fill="#FFFFFF">
            <g id="Group" transform="translate(12.164551, 11.231293)">
                <path d="M24.3419525,9.97222837 L21.3338142,10.8533937 L20.8256221,6.72889903 C21.8593091,3.1619417 28.1216712,2.99788473 28.0909105,0.750432454 C28.2838056,0.41462835 28.4613204,0.417832588 28.6253773,0.760686014 C28.639476,3.09657525 35.4350232,3.46442173 35.8195317,7.00702686 L34.6166609,10.75983 L31.3098876,9.55824086 L24.3419525,9.97222837 Z M28.1755024,6.19955898 C28.2927775,5.94386081 28.3959539,5.91886776 28.5683419,6.20212237 C28.4241512,7.66069134 31.716185,8.03046036 32.3711311,9.32689491 L24.3893752,9.30446524 C24.7379962,8.03815053 28.1870376,7.52354997 28.1755024,6.19955898 L28.1755024,6.19955898 Z" id="Fill-28"></path>
                <path d="M13.2495226,15.9404414 L11.3333885,18.4211622 L8.49827905,15.382904 C7.23773197,11.8896442 12.2075045,8.07596053 10.8623656,6.27581983 C10.8207105,5.89067047 10.9661829,5.78877571 11.3007053,5.96949471 C12.6849359,7.8516639 18.3987325,4.15461452 20.792298,6.79426548 L22.0246478,10.5380967 L18.6428954,11.5089807 L13.2495226,15.9404414 Z M14.1332514,10.6342239 C14.0774976,10.3586594 14.1460683,10.2779126 14.4523934,10.4060821 C15.1925723,11.6704743 18.0738228,10.0343906 19.3657714,10.6983086 L12.8951339,15.3720096 C12.432442,14.1422232 14.920853,11.6986716 14.1332514,10.6342239 L14.1332514,10.6342239 Z" id="Fill-29"></path>
                <path d="M8.03750968,27.4718518 L7.94586849,30.6049553 L3.86623313,29.8141495 C0.793369238,27.7288316 2.57236197,21.7221678 0.426163605,21.056968 C0.165979509,20.7692275 0.223655787,20.6013254 0.600474133,20.5513393 C2.82677844,21.2601167 5.27609769,14.9105994 8.76423078,15.639243 L11.9614191,17.9437308 L9.79663614,20.716678 L8.03750968,27.4718518 Z M5.63369061,22.6597277 C5.42733771,22.469396 5.43502788,22.3636561 5.75801503,22.2873953 C7.09994975,22.8750525 8.46944092,19.8585832 9.90558022,19.6362091 L7.41716928,27.2206396 C6.32003831,26.4977635 6.89680108,23.0583349 5.63369061,22.6597277 L5.63369061,22.6597277 Z" id="Fill-30"></path>
                <path d="M10.8681332,40.1401257 L12.6355907,42.7291497 L8.87061147,44.4869945 C5.15818174,44.6061921 3.06709626,38.701423 0.939482474,39.4249399 C0.560741586,39.3448339 0.508192089,39.1750093 0.783756525,38.9129027 C3.00172982,38.1778506 1.25093437,31.6014732 4.50067218,30.1409817 L8.44252532,30.1256014 L8.32076429,33.6412909 L10.8681332,40.1401257 Z M6.09574168,37.6600458 C5.81633215,37.6280034 5.76057842,37.5376439 5.97718488,37.2857908 C7.40819741,36.9730572 6.74235683,33.7271645 7.7734805,32.7030901 L10.2183138,40.3022601 C8.90649893,40.3618589 7.35116198,37.2402906 6.09574168,37.6600458 L6.09574168,37.6600458 Z" id="Fill-31"></path>
                <path d="M19.9950837,47.6316333 L22.9077357,48.7890039 L20.7692275,52.3521162 C17.7585258,54.5271527 12.722746,50.8012652 11.3635083,52.5898706 C11.0046337,52.7359838 10.8662107,52.6244764 10.9482391,52.2534256 C12.3754066,50.4039397 7.24734468,45.9301831 9.12438709,42.9021785 L12.3837376,40.6854869 L14.2486039,43.6686322 L19.9950837,47.6316333 Z M14.6510562,48.2442835 C14.4017665,48.3737347 14.3049985,48.3301571 14.3434493,48.0001206 C15.3553476,46.9401588 12.9886977,44.6215725 13.2706706,43.1969684 L19.5464904,48.128931 C18.4922962,48.9120466 15.4572423,47.1939344 14.6510562,48.2442835 L14.6510562,48.2442835 Z" id="Fill-32"></path>
                <path d="M32.1378626,48.8248914 L35.1748391,48.0501067 L35.5394813,52.1893409 C34.3821107,55.7184882 28.1178261,55.6640162 28.0697625,57.9108276 C27.8653322,58.2395824 27.6878174,58.2299697 27.5352957,57.8819895 C27.6032255,55.5467411 20.8249812,54.941781 20.5635154,51.3882815 L21.89776,47.6796968 L25.1596739,48.9966385 L32.1378626,48.8248914 Z M28.1748615,52.4623419 C28.0492554,52.7135542 27.9454381,52.7347021 27.7826628,52.4450391 C27.9781213,50.9935194 24.7008271,50.5083978 24.0907402,49.1901745 L32.0680102,49.4913728 C31.6751707,50.7442297 28.2101081,51.138351 28.1748615,52.4623419 L28.1748615,52.4623419 Z" id="Fill-33"></path>
                <path d="M43.0617496,42.8765446 L45.0631164,40.4643945 L47.7905635,43.5994206 C48.9287087,47.1343356 43.8288441,50.7717862 45.1105391,52.6180679 C45.1387364,53.004499 44.9894189,53.1012669 44.6619458,52.9090127 C43.3437225,50.9794208 37.5049607,54.475244 35.204318,51.7535646 L34.1039828,47.9687191 L37.5171368,47.1170327 L43.0617496,42.8765446 Z M41.9934567,48.1481564 C42.0389569,48.4262842 41.9678228,48.5038268 41.6666245,48.3654037 C40.9706641,47.0760185 38.0343007,48.6102075 36.7660635,47.9014301 L43.396272,43.4565116 C43.8153863,44.7016784 41.2436651,47.0567931 41.9934567,48.1481564 L41.9934567,48.1481564 Z" id="Fill-34"></path>
                <path d="M48.0033249,31.3156552 L48.2039101,28.1876785 L52.2534256,29.1201116 C55.2519512,31.3111693 53.264683,37.2524667 55.3865292,37.9920048 C55.6358189,38.2880763 55.572375,38.4540559 55.194275,38.491225 C52.9942454,37.7049051 50.3244746,43.9653446 46.8645388,43.1155808 L43.7487381,40.7008673 L46.0090073,38.0048217 L48.0033249,31.3156552 Z M50.2373193,36.2085261 C50.4372638,36.4059072 50.4257285,36.5110062 50.100178,36.5763726 C48.7793912,35.9419335 47.3054419,38.9090576 45.8628941,39.0814456 L48.6146934,31.5880154 C49.6855496,32.3487015 48.9895892,35.7663413 50.2373193,36.2085261 L50.2373193,36.2085261 Z" id="Fill-35"></path>
                <path d="M45.3226596,19.295919 L43.6474842,16.6472962 L47.4714214,15.0221069 C51.1851328,15.0323604 53.0692246,21.0063411 55.2205497,20.3578034 C55.5967272,20.4507263 55.6428682,20.6224734 55.3589728,20.8749673 C53.1166473,21.5318361 54.6360968,28.1652488 51.3376545,29.5116695 L47.3977239,29.3892676 L47.6418868,25.8799865 L45.3226596,19.295919 Z M50.0066142,21.9413376 C50.284742,21.9836336 50.3366507,22.0759156 50.1117132,22.3194377 C48.6704471,22.5821852 49.2222168,25.8492258 48.1564874,26.8367719 L45.9782467,19.157496 C47.2919841,19.1433973 48.7370953,22.3168743 50.0066142,21.9413376 L50.0066142,21.9413376 Z" id="Fill-36"></path>
                <path d="M36.3629704,11.4186212 L33.4503184,10.2606098 L35.5888266,6.6974975 C38.5995282,4.52310184 43.6353081,8.24898937 44.9945457,6.45974307 C45.3534203,6.31362984 45.4912025,6.4251373 45.4098149,6.79682887 C43.9826475,8.64631483 49.1107094,13.1194306 47.233667,16.148076 L43.9743164,18.3641267 L42.1088093,15.3816223 L36.3629704,11.4186212 Z M41.7063571,10.8053302 C41.9562876,10.675879 42.0530556,10.7194566 42.0139639,11.0494931 C41.0027065,12.1094549 43.3693564,14.4280412 43.0873835,15.8532861 L36.8109228,10.9206827 C37.8657578,10.137567 40.9001709,11.8556792 41.7063571,10.8053302 L41.7063571,10.8053302 Z" id="Fill-37"></path>
                <path d="M17.5515321,24.4810164 L28.2562492,24.4842206 C29.5232047,28.1838334 28.8330119,29.3136476 26.193361,27.8755857 C19.5644341,25.5826333 21.162067,31.0913586 24.3368257,35.8195317 C27.4673659,40.4810566 30.2781231,42.4433317 30.6857021,42.433719 C30.8074632,42.4305148 30.8843649,42.2414647 30.732484,42.0235766 C26.7284687,36.2905546 25.9376628,30.9715201 29.4789862,31.3976837 C33.0594014,31.5239307 32.4602089,27.3661119 31.5534097,24.4848615 L39.794068,24.486784 L38.3950979,21.695893 L15.4482705,21.9509503 L17.5515321,24.4810164 Z" id="Fill-38"></path>
                <path d="M28.1370515,15.3630378 C29.6449657,15.3630378 30.8683437,16.5857748 30.8683437,18.0943299 C30.8683437,19.6022442 29.6449657,20.8249812 28.1370515,20.8249812 C26.6291373,20.8249812 25.4057594,19.6022442 25.4057594,18.0943299 C25.4057594,16.5857748 26.6291373,15.3630378 28.1370515,15.3630378" id="Fill-39"></path>
                <path d="M27.8441842,8.87701994 C39.1224598,8.87701994 48.2679949,18.022555 48.2679949,29.3008306 C48.2679949,40.5784654 39.1224598,49.7246413 27.8441842,49.7246413 C16.5671903,49.7246413 7.42101436,40.5784654 7.42101436,29.3008306 C7.42101436,18.022555 16.5671903,8.87701994 27.8441842,8.87701994 Z M27.8441842,10.5611672 C38.1925901,10.5611672 46.5851293,18.9530656 46.5851293,29.3008306 C46.5851293,39.6485956 38.1925901,48.0411349 27.8441842,48.0411349 C17.49706,48.0411349 9.10516166,39.6485956 9.10516166,29.3008306 C9.10516166,18.9530656 17.49706,10.5611672 27.8441842,10.5611672 L27.8441842,10.5611672 Z" id="Fill-41"></path>
                <path d="M9.41661356,20.6237551 L46.5562911,20.7391077 L28.0921922,49.6547889 L9.41661356,20.6237551 Z M11.5942135,21.952232 L44.3780504,21.9221122 L28.0864246,47.1683005 L11.5942135,21.952232 L11.5942135,21.952232 Z" id="Fill-40"></path>
            </g>
        </g>
    </g>
</svg>